<?xml version="1.0" encoding="utf-8"?>
<!-- Generator: Adobe Illustrator 24.1.2, SVG Export Plug-In . SVG Version: 6.00 Build 0)  -->
<svg version="1.1" id="Layer_1" xmlns="http://www.w3.org/2000/svg" xmlns:xlink="http://www.w3.org/1999/xlink" x="0px" y="0px"
	 viewBox="0 0 595.28 841.89" style="enable-background:new 0 0 595.28 841.89;" xml:space="preserve">
<style type="text/css">
	.st0{fill:none;}
	.st1{fill:#FFFFFF;}
	.st2{fill:#FDFDFD;}
	.st3{fill:#B3C0D4;}
	.st4{font-family:'Roboto-Black';}
	.st5{font-size:53px;}
	.st6{letter-spacing:3;}
	.st7{fill:none;stroke:#FFFFFF;stroke-width:5;stroke-linecap:round;stroke-miterlimit:10;}
	.st8{font-family:'Roboto-Regular';}
	.st9{font-size:25px;}
	.st10{fill:none;stroke:#FFFFFF;stroke-width:3;stroke-miterlimit:10;}
	.st11{fill:none;stroke:#FFFFFF;stroke-width:3;stroke-miterlimit:10;stroke-dasharray:5.9145,5.9145;}
	.st12{fill:#FFFFFF;stroke:#FFFFFF;stroke-width:3;stroke-linecap:round;stroke-miterlimit:10;}
	.st13{fill:none;stroke:#FFFFFF;stroke-width:3;stroke-linecap:round;stroke-miterlimit:10;}
</style>
<g>
	<path id="SVGID_x5F_1_x5F_" class="st0" d="M450.22,382.32c0,86.05-69.76,155.81-155.81,155.81s-155.81-69.76-155.81-155.81
		s69.76-155.81,155.81-155.81S450.22,296.27,450.22,382.32z"/>
	<text>	<textPath  xlink:href="#SVGID_x5F_1_x5F_" startOffset="5269.271%">
<tspan  class="st1 st4" style="font-size:21px; letter-spacing:100;">EXPERIENCE THE THRILL OF ADVENTURE</tspan>	</textPath>
</text>
	<g>
		<g>
			<path class="st1" d="M271.8,250.87l0.15-0.06c0.7-0.31,1.52,0.01,1.83,0.71l4.38,9.89c0.31,0.7-0.01,1.52-0.71,1.83l-0.15,0.06
				c-0.7,0.31-1.52-0.01-1.83-0.71l-4.38-9.89C270.78,252,271.09,251.18,271.8,250.87z"/>
			<path class="st1" d="M320.97,261.76l4.41-9.86c0.31-0.69,1.11-0.99,1.8-0.69l0.09,0.04c0.69,0.31,0.99,1.11,0.69,1.8l-4.41,9.86
				c-0.31,0.69-1.11,0.99-1.8,0.69l-0.09-0.04C320.97,263.25,320.67,262.44,320.97,261.76z"/>
			<path class="st1" d="M399.24,375.92c-0.23,0.07-0.37,0.31-0.31,0.54c0.03,0.11,0.1,0.2,0.2,0.26c2.42,1.44,4.5,3.38,6.1,5.7
				c1,1.49,2.86,1.67,4.68,1.19c7-1.82,9.64,2.65,13,7.58c0.78,1.08,1.81,1.95,3,2.54c3.63,1.89,6.76,4.6,9.15,7.92
				c3.08,4.41,6.51,8.57,10.26,12.42c12.03,12.2,24.8,23.62,38.26,34.22c3.81,2.83,7.02,6.39,9.42,10.49
				c0.44,0.82,0.12,1.85-0.7,2.28c-0.26,0.14-0.55,0.21-0.85,0.2c-0.47-0.06-0.91-0.27-1.25-0.6c-6.21-5.28-12.5-10.47-18.87-15.56
				c-13.16-10.68-25.45-22.38-36.76-35c-5-5.43-5.77-10-13.71-12.65c-0.32-0.11-0.6-0.32-0.79-0.6c-1.51-2.25-3.64-7.76-6.87-8.2
				c-0.33-0.04-0.66,0.02-0.95,0.18c-1.7,1.11-3.9,1.11-5.6,0c-2.31-1.24-4.38-1.73-6.12-3.84c-3-3.64-5.5-4.51-9.05-6.38
				c-4.39-2.31-5.8-7.56-9.05-11.15c-2.91-3.21-5.72-6.51-8.45-9.88c-1.16-1.49-2.07-3.16-2.68-4.94c-2.3-6.55-5.68-12.68-10-18.12
				c-2.12-2.65-5.23-3.29-7.58-5.64c-1.27-1.49-2.83-2.7-4.59-3.55c-2.71-1.16-4.83-1.76-6.74-4.22c-2.28-2.95-4.46-5.95-6.54-9
				c-3.73-5.52-5.12-13-9-17.71c-2-2.44-6.45-3.79-8.89-7.2c-4.47-6.29-7.72-14.77-10.74-19.75c-1.91-3.16-4.03-6.2-6.34-9.09
				c-0.55-0.67-1.54-0.76-2.21-0.21c-0.08,0.06-0.15,0.13-0.21,0.21c-1.39,1.63-2.77,3.3-4.14,5c-1.43,1.75-3,5.5-5.37,6.68
				c-2.33,1-4.44,2.47-6.18,4.32c-5.43,6.58-7.29,13.07-10.63,19.79c-0.15,0.3-0.41,0.54-0.73,0.66c-4.15,1.55-7.12,3.89-8.91,7
				l-10.7,18.73c-6.07,10.63-11.31,19-20.44,25.68c-1.28,0.82-2.66,1.47-4.1,1.94c-3.16,1.19-5.79,3.46-7.44,6.41
				c-3.72,6.21-6.05,10.21-7,12c-1.2,2.36-3.27,4.16-5.78,5c-3.52,1.46-6.36,4.21-7.93,7.68c-1.17,2.31-3.7,3.52-6.49,3.93
				c-6.58,0.86-12.45,4.6-16,10.21c-2.85,4.28-7,8-9.6,11.46c-4.24,5.73-6.33,13-11.74,17.69c-3.19,2.78-6.75,5.09-10.58,6.87
				c-4.6,2.12-10.22,14.38-12.89,19c-0.18,0.3-0.45,0.54-0.78,0.66c-3.57,1.3-6.65,3.68-8.81,6.81c-0.22,0.31-0.55,0.53-0.92,0.63
				c-4.41,1.1-8.56,3.1-12.17,5.86c-0.62,0.48-1.51,0.36-1.99-0.26c-0.1-0.13-0.18-0.28-0.23-0.45c-0.19-1,0.08-2.04,0.75-2.81
				c2.42-3.65,6.16-6.23,10.43-7.19c0.32-0.08,0.6-0.25,0.82-0.49c0.97-1.07,1.94-2.11,2.92-3.12c2.6-2.7,6.27-3.29,8-6.95
				c3.72-7.76,7.23-14.59,15.31-18.57c4-2,8.36-4.79,10.1-8.66c2.71-6.04,6.31-11.64,10.66-16.63l5.22-6c2.49-3,4.77-6.44,7.94-8.6
				c3.34-2.35,7.13-3.97,11.14-4.76c2.67-0.49,3.46-0.59,4.92-3.11c1.02-1.74,2.24-3.36,3.64-4.81c3-3.13,8.14-3.58,10.21-8.05
				c2.65-5.7,6.41-12.82,11.43-16.75c1.86-1.2,3.8-2.26,5.81-3.19c4.87-2.33,8.98-5.99,11.85-10.57
				c6.32-9.27,12.09-18.91,17.27-28.86c2.8-5.47,7.16-9.97,12.54-12.94c0.3-0.16,0.52-0.43,0.63-0.75c3.46-9.63,7.65-18,16.5-23.66
				c1.2-0.76,2.24-1.75,3.06-2.92c1.98-2.89,4.14-5.64,6.48-8.24c5.68-6.32,11.33,1,14.47,5.78c3.95,6.07,7.38,12.46,10.25,19.11
				c1.42,3.32,3.83,6.11,6.9,8c8.42,5.22,9.23,12.78,13.59,20.57c1.76,3.13,3.73,6.14,5.9,9c2.5,3.31,5.85,3.25,8.88,5.74
				c4,3.31,8.82,5.91,11.91,9.94c4.15,5.39,7.48,11.38,9.87,17.75c0.71,2,1.72,3.88,3,5.57c1.96,2.52,4.03,4.94,6.21,7.27
				c1.51,1.56,2.87,3.26,4.07,5.07c1.26,2,2.47,4.07,3.62,6.2c0.3,0.55,0.99,0.74,1.54,0.44c0.2-0.11,0.36-0.28,0.46-0.49
				c0.5-0.75,1.29-1.26,2.18-1.39c6.72-1.9,13.92-1.17,20.12,2.05c0.33,0.16,0.7,0.21,1.06,0.14c3.18-0.74,6.53,0.03,9.06,2.1
				c0.28,0.22,0.66,0.28,1,0.16c6-2.28,9.08,0.64,13.81,3.57c0.28,0.16,0.63,0.16,0.91,0c2.77-1.55,6.08-1.79,9.05-0.67
				c3.31,1.28,5,1.79,8.72,1.19c3-0.48,13.65-2.43,15.55-0.07c0.42,0.55,0.31,1.33-0.24,1.75c-0.19,0.15-0.42,0.23-0.67,0.25
				c-5.06,0.31-10.09,0.96-15.06,1.96c-4.4,0.84-8-1.21-12-2.57c-0.27-0.11-0.56-0.11-0.83,0l-4.46,1.94
				c-0.3,0.13-0.64,0.11-0.92-0.06c-1.33-0.81-3.26-2.02-5.79-3.63c-3.19-2-5.71-0.24-9,0c-0.31,0.03-0.62-0.07-0.86-0.26
				c-2.5-2.08-5.84-2.85-9-2.09c-0.38,0.09-0.78,0.03-1.11-0.18C411.46,375.02,405.13,374.21,399.24,375.92z"/>
			<path class="st1" d="M255.22,256.56l0.48-0.29c0.53-0.33,1.23-0.16,1.55,0.37l11.98,19.54c0.33,0.53,0.16,1.23-0.37,1.55
				l-0.48,0.29c-0.53,0.33-1.23,0.16-1.55-0.37l-11.98-19.54C254.52,257.59,254.69,256.89,255.22,256.56z"/>
			<path class="st1" d="M328.24,278.42l13.74-21.24c0.4-0.62,1.22-0.79,1.84-0.39l0.17,0.11c0.62,0.4,0.79,1.22,0.39,1.84
				l-13.74,21.24c-0.4,0.62-1.22,0.79-1.84,0.39l-0.17-0.11C328.02,279.86,327.84,279.04,328.24,278.42z"/>
			<path class="st1" d="M232.19,269.2l0.11-0.12c0.51-0.53,1.35-0.55,1.88-0.04l23.21,22.26c0.53,0.51,0.55,1.35,0.04,1.88
				l-0.11,0.12c-0.51,0.53-1.35,0.55-1.88,0.04l-23.21-22.26C231.7,270.57,231.68,269.73,232.19,269.2z"/>
			<path class="st1" d="M341.92,291.88l23.29-22.26c0.54-0.52,1.4-0.5,1.92,0.04l0.04,0.04c0.52,0.54,0.5,1.4-0.04,1.92
				l-23.29,22.26c-0.54,0.52-1.4,0.5-1.92-0.04l-0.04-0.04C341.35,293.26,341.37,292.4,341.92,291.88z"/>
			<path class="st1" d="M211.45,285.55l0.03-0.05c0.39-0.64,1.22-0.83,1.86-0.44l32.5,20c0.64,0.39,0.83,1.22,0.44,1.86l-0.03,0.05
				c-0.39,0.64-1.22,0.83-1.86,0.44l-32.5-20C211.26,287.01,211.06,286.18,211.45,285.55z"/>
			<path class="st1" d="M386.53,285.45c0.26-0.15,0.59-0.06,0.74,0.2c0,0,0,0,0,0l0.15,0.25c0.57,1-0.2,2.48-1.72,3.37l-10.51,6.15
				c-1.52,0.88-3.21,0.81-3.78-0.16l-0.15-0.26c-0.15-0.26-0.06-0.59,0.2-0.74c0,0,0,0,0,0L386.53,285.45z"/>
			
				<ellipse transform="matrix(0.9157 -0.4019 0.4019 0.9157 -88.9914 172.9458)" class="st1" cx="367.63" cy="298.54" rx="3.44" ry="1.59"/>
			<path class="st1" d="M351.17,306.07l10.32-5.65c0.67-0.37,1.52-0.12,1.89,0.55l0.04,0.07c0.37,0.67,0.12,1.52-0.55,1.89
				l-10.32,5.65c-0.67,0.37-1.52,0.12-1.89-0.55l-0.04-0.07C350.25,307.28,350.49,306.44,351.17,306.07z"/>
			<path class="st1" d="M189.87,306.16l0.03-0.08c0.24-0.71,1.01-1.08,1.71-0.85l41.7,14.11c0.71,0.24,1.08,1.01,0.85,1.71
				l-0.03,0.08c-0.24,0.71-1.01,1.08-1.71,0.85l-41.7-14.11C190,307.63,189.63,306.87,189.87,306.16z"/>
			<path class="st1" d="M366.48,319.37l40.34-13.19c0.76-0.25,1.57,0.17,1.82,0.92l0.01,0.04c0.25,0.76-0.17,1.57-0.92,1.82
				l-40.34,13.19c-0.76,0.25-1.57-0.17-1.82-0.92l-0.01-0.04C365.31,320.43,365.73,319.61,366.48,319.37z"/>
			<path class="st1" d="M218.14,334.56l6.9-0.13c0.69-0.01,1.26,0.54,1.27,1.23l0.01,0.44c0.01,0.69-0.54,1.26-1.23,1.27l-6.9,0.13
				c-0.69,0.01-1.26-0.54-1.27-1.23l-0.01-0.44C216.9,335.14,217.45,334.57,218.14,334.56z"/>
			<path class="st1" d="M376.15,334.49h6.78c0.78,0,1.42,0.64,1.42,1.42v0.1c0,0.78-0.64,1.42-1.42,1.42h-6.78
				c-0.78,0-1.42-0.64-1.42-1.42v-0.1C374.73,335.12,375.36,334.49,376.15,334.49z"/>
			<path class="st1" d="M209.7,351.58c0.01,0.16-0.12,0.29-0.28,0.3c0,0,0,0,0,0l-37.1,1.17c-1,0-1.83-0.5-1.85-1.17v-0.38
				c0-0.68,0.78-1.26,1.78-1.29l37.1-1.17c0.15-0.01,0.28,0.12,0.29,0.27c0,0,0,0.01,0,0.01L209.7,351.58z"/>
			<path class="st1" d="M427.7,350.09c0.3,0.01,0.54,0.25,0.53,0.55c0,0,0,0,0,0v0.58c0,1-0.59,1.83-1.28,1.82l-42.43-0.82
				c-0.69,0-1.24-0.85-1.22-1.86v-0.54c0-0.29,0.24-0.53,0.53-0.53c0.01,0,0.01,0,0.02,0L427.7,350.09z"/>
			<path class="st1" d="M169.6,377.16c8-4.63,14-7.4,23.19-3.28c0.41,0.18,0.47,0.44,0.19,0.79l-1.37,1.68
				c-0.21,0.25-0.56,0.34-0.86,0.21c-6.91-3.06-13.68-0.52-19,3.74c-0.79,0.63-1.86,0.8-2.81,0.44c-3.01-1.24-6.45-0.88-9.14,0.95
				c-0.29,0.19-0.65,0.27-1,0.21c-3.23-0.57-5.39-0.52-6.48,0.13c-2.68,1.59-5.09,3.3-8.36,3.22c-6.84-0.17-13.17-2.3-20-1.78
				c-0.65,0.05-1.21-0.44-1.26-1.09c-0.01-0.15,0.01-0.3,0.05-0.44c0.39-1.38,1.76-2.25,3.18-2c5.07,0.27,10.11,0.94,15.07,2
				c3.54,0.76,5.52-0.73,8.38-2.26s5.17-1.51,8.29-0.8c0.35,0.08,0.72-0.01,1-0.23c2.72-2.31,6.53-2.85,9.79-1.39
				C168.83,377.42,169.26,377.38,169.6,377.16z"/>
		</g>
	</g>
	<g>
		<path class="st2" d="M309.94,290.3c1.81,2.71,4.29,4.91,7.2,6.38c2.05,1.49,3.63,3.07,3.43,5.89c-0.29,4.12-1.22,8.16-2.74,12
			c-0.47,1.2-1.75,2.63-2.32,4.12c-0.07,0.19,0.02,0.4,0.21,0.48c0.1,0.04,0.21,0.03,0.31-0.02l3.79-2
			c0.88,0.01,1.73,0.26,2.47,0.73c0.28,0.17,0.5,0.43,0.63,0.74c2.29,5.42,6.49,8.31,9.89,12.68c0.89,1.23,1.6,2.57,2.12,4
			c1.19,2.99,3.16,5.62,5.69,7.61c0.09,0.07,0.15,0.16,0.19,0.27l2.51,7.16c0.07,0.2-0.01,0.42-0.2,0.52
			c-0.19,0.1-0.42,0.05-0.55-0.11l-5.65-7c-0.21-0.27-0.48-0.47-0.79-0.61c-1.18-0.54-2.21-1.36-3-2.38
			c-0.16-0.19-0.44-0.23-0.63-0.07c-0.08,0.06-0.13,0.15-0.16,0.25c-0.52,2.49-0.08,5.1,1.23,7.28c0.43,0.74,0.37,1.31-0.2,1.71
			c-0.21,0.2-0.54,0.19-0.74-0.01c-0.04-0.05-0.08-0.1-0.1-0.16l-12-18.85c-0.4-0.62-1.22-0.8-1.84-0.4
			c-0.31,0.2-0.53,0.52-0.59,0.89c-0.16,0.93-0.9,1.23-2.21,0.91c-0.86-1.53-1.95-2.92-3.25-4.1c-4.43-4.07-8.84-8.18-13.21-12.35
			c-0.23-0.25-0.61-0.29-0.88-0.07l-3,2.13c-0.32,0.22-0.5,0.61-0.47,1c0.24,3.85,0.39,8.7-0.87,12.34
			c-0.11,0.35-0.31,0.66-0.57,0.91l-3.37,3.33c-0.09,0.1-0.09,0.25,0,0.35c0.08,0.1,0.23,0.13,0.34,0.06l7.32-4.33
			c0.71-0.05,1.09,0.11,1.14,0.48c0.25,1.66,0.62,3.29,1.11,4.89c-2.5,2.41-4.59,5.21-6.21,8.28c-4.15,8.2-10.35,15.19-17.98,20.31
			c-1,0.69-0.9,0.86,0.25,0.51c6.64-2.08,12.79-5.48,18.08-10c0.82-0.23,1.38-0.23,1.67,0c0.17,0.11,0.22,0.34,0.11,0.51
			c-0.01,0.02-0.03,0.04-0.05,0.06l-9.81,13.42c-0.15,0.22-0.09,0.52,0.13,0.67c0.14,0.1,0.33,0.11,0.48,0.03
			c1.77-0.97,3.37-2.23,4.72-3.73c0.23-0.25,0.51-0.44,0.83-0.54c1.58-0.47,2.8-1.75,3.18-3.36c0.05-0.2,0.25-0.32,0.45-0.27
			c0.07,0.02,0.14,0.06,0.19,0.12l0.22,0.23c0.07,0.11,0.22,0.15,0.33,0.08c0.03-0.02,0.06-0.05,0.08-0.08
			c2.21-2.74,4.13-1.5,6.61-1.64c1-0.05,2-0.08,3-0.07c3.14,0.57,5.16,1.69,6.06,3.34c2.64,4.98,5.93,9.6,9.78,13.72
			c2.19,4.31,2.82,8.4,1.88,12.26c-0.07,0.27-0.27,0.48-0.54,0.56l-1.38,0.36c-0.47,0.12-0.6,0.4-0.39,0.84
			c1.52,3.2,3.39,6.22,5.59,9c1.1,1.54,2,3.22,2.66,5c0.68,1.74,1.52,3.41,2.51,5c2.33,3.52,4.95,6.83,7.83,9.9
			c1.17,1.26,2.03,2.77,2.53,4.41c0.19,0.65,0,0.75-0.47,0.3c-5.78-5.05-11.56-10.05-17.35-15c-4.36-3.75-11.75-8.36-22.17-13.85
			l-3.49-4.39c-0.22-0.27-0.38-0.58-0.48-0.92c-0.32-1.05-0.91-2.01-1.7-2.78c-0.2-0.19-0.34-0.44-0.38-0.71
			c-0.23-1.41-0.84-2.73-1.77-3.81c-0.2-0.22-0.3-0.51-0.29-0.81c0.05-0.74-0.3-1.44-0.91-1.85c-0.16-0.11-0.38-0.06-0.48,0.1
			c-0.08,0.12-0.07,0.27,0,0.39l0.37,0.48c0.2,0.26,0.16,0.64-0.1,0.84c-0.17,0.13-0.4,0.16-0.61,0.08
			c-0.79-0.23-1.33-0.95-1.32-1.77c0-0.31-0.04-0.62-0.12-0.92c-0.14-0.47-0.41-0.65-0.8-0.53c-0.17,0.05-0.28,0.21-0.29,0.38
			l-0.21,5.39c-0.01,0.34,0.18,0.65,0.49,0.79c1.89,0.82,1.67,2.48,2.31,3.57c3.02,5.17,5.83,10.46,8.42,15.88
			c0.14,0.3,0.39,0.54,0.69,0.68l2.41,1.14c0.66,0.41,1.13,1.08,1.3,1.84c0.07,0.41-0.09,0.52-0.46,0.33c-2.34-1.16-4.59-2.5-6.72-4
			c-5.18-4.47-10.79-8.4-16.75-11.75c-1.52-0.81-2.89-1.86-4.06-3.12c-3.16-3.43-7.75-9.11-12.2-10.59l-11.55-3.85
			c-0.32-0.13-0.69-0.03-0.91,0.24l-3.66,4c-0.2,0.23-0.49,0.36-0.8,0.36c-12.63,0-25.95-3.29-31.71,11.72
			c-0.12,0.29-0.4,0.49-0.71,0.5c-4.81,0.12-5,4.34-5.12,8c-0.01,0.27-0.15,0.52-0.38,0.66l-8.34,5.14
			c-0.32,0.19-0.54,0.5-0.62,0.86c-1.33,5.88-2.47,11.69-3.42,17.44c-0.25,1.61-0.85,3.14-1.77,4.48c-3.3,4.71-7.01,9.12-11.1,13.16
			c-1.61,1.07-3.44,1.75-5.35,2c-0.33,0.04-0.65-0.17-0.73-0.5c-0.08-0.4-0.06-0.82,0.08-1.2l5-7.45c0.15-0.23,0.08-0.54-0.16-0.69
			c-0.12-0.07-0.26-0.1-0.39-0.06c-1.04,0.3-2.05,0.71-3,1.23c-7.95,4.27-15.88,8.61-23.77,13c-0.2,0.11-0.45,0.03-0.56-0.16
			c-0.04-0.08-0.06-0.17-0.04-0.27c0.07-0.3,0.22-0.58,0.43-0.8c3.33-3.95,6.57-7.75,9.71-11.4c0.16-0.15,0.16-0.41,0.01-0.57
			c-0.13-0.14-0.35-0.16-0.51-0.05l-22.55,12.49c-0.18,0.1-0.4,0.05-0.52-0.11c-0.13-0.15-0.13-0.37,0-0.52l9.45-9.94
			c-0.74-0.5-1.18-1.34-1.16-2.24c0.02-0.32,0.18-0.62,0.43-0.82c1.98-1.51,3.64-3.42,4.85-5.6c0.1-0.16,0.05-0.38-0.11-0.48
			c-0.12-0.07-0.27-0.07-0.39,0.01c-4,2.72-8.26,4-12,7.2c-0.39,0.34-0.99,0.29-1.33-0.1c-0.02-0.02-0.04-0.05-0.05-0.07
			c0-0.07,0-0.25,0.12-0.56c1.91-2.91,3.15-5.28,6.51-6.84c8.72-4.05,16.99-9.02,24.67-14.82c0.16-0.12,0.21-0.34,0.11-0.52
			c-0.1-0.17-0.3-0.25-0.49-0.18l-8.27,3.14c-0.15,0.06-0.32-0.02-0.37-0.17c-0.03-0.08-0.02-0.17,0.02-0.25
			c1.61-2.67,3.89-5,5.28-7.53c3.66-6.76,8.01-13.11,13-18.95c1.24-1.54,2.85-2.75,4.67-3.53c4.09-1.68,9-1.74,12.43-5
			c2.94-2.8,5.69-6.53,9-8.74c2.79-1.87,6.29-3.42,8-6.49c4.58-8,7.6-13.07,9.06-15.2c1.08-1.56,4.36-2.49,5.89-3.45
			c12-7.54,16.61-15.64,25.19-29.94c4.48-7.45,9.08-18.16,16.28-23.16c2.1-1.59,3.73-3.71,4.73-6.15c2.57-6,6.31-13.21,11.85-16.94
			c3.54-2.38,6.62-5.37,9.1-8.83c0.23-0.32,0.44-0.31,0.65,0c2.92,4.86,7,11.45,7.3,17.17C308.01,282.54,307.3,288.95,309.94,290.3z
			 M302.71,302.54l3.6,5.53c0.06,0.12,0.2,0.17,0.32,0.11c0.1-0.05,0.16-0.16,0.13-0.27c-0.73-5.82-0.96-11.69-0.69-17.55
			c0.02-0.44-0.33-0.8-0.76-0.82c-0.16-0.01-0.32,0.04-0.46,0.13c-10.13,6.63-15.74,17.11-21.84,27c-0.09,0.15-0.06,0.34,0.07,0.45
			c0.13,0.11,0.32,0.11,0.45,0l16.41-14.89c0.74-0.69,1.91-0.65,2.6,0.1C302.6,302.39,302.66,302.46,302.71,302.54z M277.87,312.74
			c3.87-4.62,5.44-11.05,9.12-16.14c0.45-0.63,0.34-0.76-0.34-0.39c-3.62,1.92-7.02,4.24-10.14,6.9c-0.25,0.22-0.42,0.52-0.48,0.85
			c-1.11,6.28-3.53,12.25-7.1,17.53c-0.07,0.11-0.05,0.26,0.05,0.34c0.1,0.08,0.24,0.08,0.34,0c3.03-2.88,5.88-5.93,8.55-9.14
			V312.74z M282.43,331.95c-2.64,0.95-8.15,2.84-9.44,5.34c-3.76,7.35-8.3,14.28-13.52,20.68c-0.08,0.08-0.08,0.22,0,0.3
			c0.09,0.07,0.21,0.07,0.3,0c6.48-5,12.76-10.25,17.37-17.11c1.94-2.89,3.8-5.84,5.58-8.85c0.27-0.44,0.16-0.57-0.29-0.41V331.95z
			 M237.23,356.53c-2.68,4.46-5.68,8.71-9,12.72c-0.08,0.11-0.08,0.25,0,0.36c0.11,0.08,0.25,0.08,0.36,0
			c7.79-5.09,14.7-11.41,20.46-18.72c0.28-0.35,0.2-0.47-0.23-0.36c-2.51,0.67-5.01,1.37-7.5,2.1c-1.45,0.43-2.82,1.72-4.09,3.85
			L237.23,356.53z M299.49,372.53c-2.07,0.84-1.1,1.13,2.89,0.86c5.52-0.37,3.62,5.77,3.52,9.16c0,0.38,0.1,0.43,0.35,0.15
			c3.57-4.02,5.25-9.36,4.64-14.7c0-0.75-0.67-1.15-2.11-1.2c-4.99-0.21-8.08,1.67-9.29,5.66V372.53z M189.39,399.87l-9,14.06
			c-0.29,0.45-0.2,0.56,0.29,0.33c4.3-2.06,8.44-8,12-12.32c1.73-1.88,3.79-3.43,6.07-4.59c1.4-0.82,1.32-0.99-0.23-0.51l-8.63,2.66
			c-0.2,0.04-0.37,0.15-0.5,0.3V399.87z"/>
		<path class="st3" d="M302.71,302.54c-0.56-0.85-1.7-1.08-2.55-0.52c-0.08,0.05-0.15,0.11-0.22,0.17l-16.41,14.89
			c-0.13,0.11-0.32,0.11-0.45,0c-0.13-0.11-0.16-0.3-0.07-0.45c6.1-9.86,11.71-20.34,21.84-27c0.37-0.24,0.86-0.13,1.09,0.23
			c0.09,0.14,0.13,0.3,0.13,0.46c-0.27,5.86-0.04,11.73,0.69,17.55c0.03,0.13-0.05,0.26-0.18,0.29c-0.11,0.03-0.23-0.03-0.27-0.13
			L302.71,302.54z"/>
		<path class="st3" d="M286.99,296.54c-3.68,5.09-5.25,11.52-9.12,16.14c-2.67,3.19-5.53,6.22-8.55,9.08c-0.1,0.08-0.24,0.08-0.34,0
			c-0.1-0.08-0.12-0.23-0.05-0.34c3.57-5.28,5.99-11.25,7.1-17.53c0.06-0.33,0.23-0.63,0.48-0.85c3.12-2.66,6.52-4.98,10.14-6.9
			C287.3,295.79,287.44,295.92,286.99,296.54z"/>
		<path class="st3" d="M315.86,332.32c1.31,0.32,2.05,0,2.21-0.91c0.13-0.72,0.81-1.21,1.54-1.08c0.37,0.06,0.69,0.28,0.89,0.59
			l12,18.85c0.11,0.26,0.42,0.39,0.68,0.27c0.06-0.02,0.11-0.06,0.16-0.1c0.57-0.4,0.63-1,0.2-1.71c-1.31-2.18-1.75-4.79-1.23-7.28
			c0.06-0.24,0.3-0.39,0.54-0.34c0.1,0.02,0.19,0.08,0.25,0.16c0.79,1.02,1.82,1.84,3,2.38c0.31,0.14,0.58,0.34,0.79,0.61l5.65,7
			c0.13,0.16,0.36,0.21,0.55,0.11c0.19-0.1,0.27-0.32,0.2-0.52l-2.51-7.16c-0.04-0.11-0.1-0.2-0.19-0.27
			c-2.53-1.99-4.5-4.62-5.69-7.61c-0.52-1.43-1.23-2.77-2.12-4c-3.4-4.37-7.6-7.26-9.89-12.68c-0.13-0.31-0.35-0.57-0.63-0.74
			c-0.74-0.47-1.59-0.72-2.47-0.73l4.49-2.73c0.28-0.17,0.65-0.1,0.85,0.17c1.77,2.39,2.13,6.07,4.34,7.8
			c2.82,2.2,5.62,4.43,8.4,6.69c0.99,0.81,3.62,2.71,7.89,5.68c6.06,4.24,11.09,9.8,14.69,16.26c0.13,0.25,0.07,0.32-0.19,0.23
			l-3.91-1.38c-0.39-0.13-0.81,0.08-0.93,0.47c-0.09,0.27-0.02,0.56,0.18,0.76l5.12,4.88c0.75,0.71,0.64,0.9-0.35,0.56
			c-3-1-5.86-4.74-8.83-6.18c-0.15-0.07-0.28-0.18-0.37-0.31c-0.24-0.27-0.59-0.42-0.95-0.42c-1-0.1-1.39,0.34-1.19,1.31
			c1.03,5.01,2.81,9.83,5.27,14.31c0.14,0.26,0.06,0.58-0.18,0.74c-0.24,0.16-0.57,0.12-0.75-0.11l-18.2-22.29
			c-0.17-0.23-0.48-0.28-0.71-0.11c-0.19,0.14-0.26,0.38-0.18,0.59l5.61,17.74 M339.82,361.82c-5.55-5.43-11.17-10.81-16.87-16.14
			c-3.65-3.37-4.78-8.98-7.09-13.36L339.82,361.82z"/>
		<path class="st3" d="M272.99,337.24c1.29-2.5,6.8-4.39,9.44-5.34c0.45-0.16,0.56,0,0.31,0.38c-1.78,3.01-3.64,5.96-5.58,8.85
			c-4.61,6.86-10.89,12.15-17.37,17.11c-0.09,0.07-0.21,0.07-0.3,0c-0.08-0.08-0.08-0.22,0-0.3
			C264.71,351.53,269.23,344.6,272.99,337.24z"/>
		<path class="st3" d="M237.23,356.48c1.28-2.14,2.64-3.42,4.09-3.85c2.49-0.73,4.99-1.43,7.5-2.1c0.43-0.11,0.51,0,0.23,0.36
			c-5.76,7.31-12.67,13.63-20.46,18.72c-0.11,0.08-0.25,0.08-0.36,0c-0.08-0.11-0.08-0.25,0-0.36
			C231.55,365.23,234.56,360.96,237.23,356.48z"/>
		<path class="st3" d="M306.47,361.46c-1,0-2,0-3,0.07c-2.48,0.14-4.4-1.1-6.61,1.64c-0.07,0.11-0.22,0.15-0.33,0.08
			c-0.03-0.02-0.06-0.05-0.08-0.08l-0.22-0.23c-0.13-0.16-0.37-0.17-0.52-0.04c-0.06,0.05-0.1,0.12-0.12,0.19
			c-0.38,1.61-1.6,2.89-3.18,3.36c-0.32,0.1-0.6,0.29-0.83,0.54c-1.35,1.5-2.95,2.76-4.72,3.73c-0.24,0.12-0.53,0.02-0.64-0.22
			c-0.08-0.16-0.06-0.34,0.03-0.48l9.81-13.42c0.14-0.15,0.14-0.38,0-0.52c-0.02-0.02-0.04-0.03-0.06-0.05
			c-0.29-0.25-0.85-0.25-1.67,0l2.92-2.64c0.2-0.21,0.52-0.24,0.76-0.07C301.95,355.79,301.78,360.14,306.47,361.46z"/>
		<path class="st3" d="M310.89,367.93c0.61,5.34-1.07,10.68-4.64,14.7c-0.25,0.28-0.36,0.23-0.35-0.15c0.1-3.39,2-9.53-3.52-9.16
			c-4,0.27-4.96-0.01-2.89-0.86C303.04,370.38,306.88,368.85,310.89,367.93z"/>
		<path class="st3" d="M322.3,378.54c6.93,4.52,12.17,11.2,14.9,19c0.08,0.23-0.04,0.49-0.27,0.57c-0.12,0.04-0.25,0.03-0.36-0.02
			l-5.84-3c-0.38-0.28-0.9-0.2-1.18,0.18c-0.28,0.38-0.2,0.9,0.18,1.18c3.4,3.33,6.69,6.46,9.87,9.38c3.29,3,6,6.74,9.31,9.89
			c0.13,0.12,0.15,0.32,0.05,0.46c-0.1,0.14-0.29,0.2-0.45,0.12l-13.66-6.5c-0.19-0.09-0.42,0-0.5,0.19
			c-0.05,0.11-0.05,0.24,0.01,0.34l6.11,11c-2.88-3.07-5.5-6.38-7.83-9.9c-0.99-1.59-1.83-3.26-2.51-5c-0.66-1.78-1.56-3.46-2.66-5
			c-2.2-2.78-4.07-5.8-5.59-9c-0.21-0.44-0.08-0.72,0.39-0.84l1.38-0.36c0.27-0.08,0.47-0.29,0.54-0.56
			C325.14,386.88,324.51,382.84,322.3,378.54z"/>
		<path class="st3" d="M303.04,397.28l-3.38-1.21c-0.25-0.08-0.51,0.05-0.6,0.29c-0.04,0.11-0.03,0.24,0.02,0.35l5.7,11.8
			l-2.41-1.14c-0.3-0.14-0.55-0.38-0.69-0.68c-2.59-5.43-5.38-10.73-8.38-15.88c-0.64-1.09-0.42-2.75-2.31-3.57
			c-0.31-0.14-0.5-0.45-0.49-0.79l0.21-5.39c0.01-0.17,0.12-0.33,0.29-0.38c0.39-0.12,0.66,0.06,0.8,0.53
			c0.08,0.3,0.12,0.61,0.12,0.92c-0.01,0.82,0.53,1.54,1.32,1.77c0.3,0.13,0.66-0.01,0.79-0.31c0.09-0.2,0.06-0.43-0.08-0.61
			l-0.37-0.48c-0.11-0.16-0.07-0.38,0.09-0.49c0.12-0.08,0.27-0.08,0.39,0c0.61,0.41,0.96,1.11,0.91,1.85
			c-0.01,0.3,0.09,0.59,0.29,0.81c0.93,1.08,1.54,2.4,1.77,3.81c0.04,0.27,0.18,0.52,0.38,0.71c0.79,0.77,1.38,1.73,1.7,2.78
			c0.1,0.34,0.26,0.65,0.48,0.92L303.04,397.28z"/>
		<path class="st3" d="M180.36,413.86l9-14.06c0.11-0.17,0.28-0.3,0.47-0.37l8.63-2.66c1.55-0.48,1.63-0.31,0.23,0.51
			c-2.28,1.16-4.34,2.71-6.07,4.59c-3.56,4.31-7.7,10.26-12,12.32C180.16,414.42,180.07,414.31,180.36,413.86z"/>
		<path class="st3" d="M152.89,438.93l-15.9,6.3c-0.64,0.25-0.75,0.11-0.33-0.43l6.64-8.53c-0.13,0.31-0.17,0.49-0.12,0.56
			c0.3,0.42,0.89,0.52,1.31,0.22c0.02-0.02,0.05-0.04,0.07-0.05c3.72-3.24,7.93-4.48,12-7.2c0.16-0.11,0.38-0.07,0.49,0.08
			c0.08,0.11,0.09,0.27,0.01,0.39c-1.21,2.18-2.87,4.09-4.85,5.6c-0.25,0.2-0.41,0.5-0.43,0.82
			C151.75,437.57,152.16,438.42,152.89,438.93z"/>
		<path class="st3" d="M201.48,436.24c0,0.34,0.06,0.68,0.18,1c0.13,0.31,0.41,0.52,0.74,0.56c0.49,0.07,0.99,0.02,1.46-0.13
			c-0.61,8.69-5.61,11-13.55,13c-0.43,0.11-0.66-0.06-0.71-0.5l-0.1-1.08c-0.05-0.51-0.49-0.88-1-0.83c-0.05,0-0.09,0.01-0.14,0.02
			l-12,2.85c-0.24,0.06-0.48-0.09-0.54-0.33c-0.03-0.11-0.01-0.24,0.05-0.34l3.9-6.17c-0.14,0.39-0.16,0.8-0.08,1.2
			c0.08,0.33,0.4,0.54,0.73,0.5c1.91-0.25,3.74-0.93,5.35-2c4.53-1.88,9.09-3.64,13.68-5.28
			C200.56,438.36,201.36,437.39,201.48,436.24z"/>
	</g>
	<g>
		<path class="st2" d="M230.88,384.62c5.89-0.09,11.55-0.05,17,0.13c8.76,0.3,14.86,1.8,16.52,11c0.07,0.4-0.1,0.58-0.51,0.55
			c-7.29-0.63-14.62-0.66-21.91-0.09c-0.29,0.06-0.58-0.14-0.63-0.43c0-0.03-0.01-0.05-0.01-0.08c-1.06-6.34-4.55-9.11-10.53-10.22
			c-0.22-0.05-0.36-0.27-0.31-0.49c0.04-0.18,0.2-0.31,0.38-0.32L230.88,384.62z M260.04,392.72c0-0.51-0.41-0.93-0.92-0.94l-15-0.1
			c-0.51-0.01-0.93,0.39-0.94,0.9c0,0.01,0,0.01,0,0.02v0.16c0,0.51,0.41,0.93,0.92,0.94l15,0.1c0.51,0.01,0.93-0.39,0.94-0.9
			c0-0.01,0-0.01,0-0.02V392.72z"/>
		<path class="st2" d="M236.48,395.17c0.08,0.31,0.03,0.65-0.14,0.92c-0.09,0.21-0.34,0.3-0.54,0.2c-0.06-0.03-0.11-0.06-0.15-0.11
			l-1.3-1.08c-0.43-0.36-0.6-0.26-0.5,0.29c0.25,1.33,0.01,2.71-0.68,3.88c-0.14,0.27-0.14,0.59,0,0.86c0.43,1.04,0.43,2.21,0,3.25
			c-3.24-0.99-5.39-1.4-6.45-1.23c-2,0.33-4.03,0.56-6.08,0.69c-0.24,0.05-0.48-0.11-0.53-0.35c-0.01-0.03-0.01-0.06-0.01-0.09
			c-0.55-2.98-0.16-6.06,1.13-8.81C224.89,386.27,234.57,386.76,236.48,395.17z"/>
		<path class="st3" d="M236.48,395.17c1.33,2.42,0.21,5.15-3.36,8.18c0.43-1.04,0.43-2.21,0-3.25c-0.14-0.27-0.14-0.59,0-0.86
			c0.68-1.16,0.93-2.53,0.69-3.85c-0.1-0.55,0.07-0.65,0.5-0.29l1.3,1.08c0.14,0.18,0.4,0.2,0.58,0.06
			c0.05-0.04,0.09-0.09,0.11-0.15C236.48,395.82,236.55,395.49,236.48,395.17z"/>
		<path class="st2" d="M265.79,406.44c-5.19-2.29-11-2.83-15.92,0.49c-0.32,0.23-0.75,0.17-1-0.13c-1.97-2.21-4.43-3.92-7.19-5
			c-0.45-0.18-0.44-0.34,0-0.49c6.11-1.95,11.68-2.48,16.72-1.6c3.6,0.47,6.6,2.96,7.73,6.41c0.02,0.16-0.09,0.3-0.25,0.32
			C265.85,406.45,265.82,406.45,265.79,406.44z M250.17,403.91c4-0.09,7.78-0.16,11.83,0.06c0.31,0,0.39-0.11,0.23-0.38
			c-1.65-2.77-11-1.94-14.45-1.35c-0.29,0.05-0.33,0.19-0.14,0.4C248.25,403.42,249.18,403.89,250.17,403.91z"/>
		<path class="st2" d="M278.97,443.27c-0.93-14.56-3.7-30.51-12.62-42.36c-0.23-0.31-0.16-0.4,0.2-0.28
			c10.67,3.59,14.52,35,14.7,44.36c0.01,0.31-0.23,0.57-0.54,0.58c-0.08,0-0.16-0.01-0.23-0.04
			C279.54,445.18,278.94,444.27,278.97,443.27z"/>
		<path class="st2" d="M226.7,405.57c0.02,0.15-0.08,0.3-0.23,0.33l-1.69,0.28c-1.54,0.26-2.84,0.16-2.9-0.22l-0.07-0.41
			c-0.06-0.38,1.13-0.89,2.68-1.15l1.68-0.28c0.15-0.02,0.29,0.08,0.32,0.23L226.7,405.57z"/>
		<path class="st2" d="M244.63,408.48l-5.34,3.28c-0.38,0.23-0.58,0.13-0.6-0.32l-0.27-6.42c0.02-0.55,0.48-0.98,1.04-0.96
			c0.17,0.01,0.34,0.06,0.49,0.15l4.71,3.53c0.2,0.15,0.24,0.43,0.09,0.63C244.71,408.41,244.67,408.45,244.63,408.48z"/>
		<path class="st2" d="M220.89,407.54l6.23-0.08c0.45,0,0.84-0.28,1-0.7l0.41-1.07c0.13-0.39,0.56-0.6,0.95-0.47
			c0.22,0.07,0.39,0.25,0.47,0.47c0.43,1.39,0.43,2.87,0,4.26c-0.05,0.32-0.35,0.53-0.67,0.47c-0.02,0-0.04-0.01-0.06-0.01
			c-3.49-0.58-7.06-0.41-10.48,0.5c-0.25,0.11-0.55-0.01-0.65-0.27c-0.02-0.05-0.03-0.09-0.04-0.14c-0.5-1.9-0.17-3.92,0.89-5.57
			c0.14-0.24,0.45-0.31,0.69-0.17c0.12,0.07,0.21,0.2,0.23,0.34l0.36,1.85C220.26,407.29,220.55,407.54,220.89,407.54z"/>
		<path class="st2" d="M253.67,408.81c2.53,4.36,5.31,9.63,6,14.51c0.1,0.59-0.29,1.15-0.88,1.25c-0.54,0.09-1.07-0.23-1.22-0.76
			c-1.77-5.21-4-10.26-6.66-15.08c-0.16-0.21-0.12-0.5,0.09-0.66c0.03-0.03,0.07-0.05,0.11-0.06
			C252.17,407.34,253.04,407.74,253.67,408.81z"/>
		<path class="st2" d="M269.91,424.03c-0.17-0.03-0.31-0.15-0.37-0.32l-5.2-15.35c-0.07-0.21,0.04-0.45,0.26-0.52
			c0.04-0.01,0.09-0.02,0.13-0.02c0.89-0.06,1.72,0.41,2.13,1.2c2.21,4.67,3.92,9.56,5.09,14.59c0.07,0.3-0.12,0.59-0.42,0.66
			c-0.07,0.02-0.14,0.02-0.21,0L269.91,424.03z"/>
		<path class="st2" d="M204.73,437.4c-0.47,0.15-0.97,0.2-1.46,0.13c-0.33-0.04-0.61-0.25-0.74-0.56c-0.12-0.32-0.18-0.66-0.18-1
			c0.41-4.89,0.81-9.81,1.2-14.76c0.44-5.61,3.84-9.55,9.29-10.54c0.53-0.11,1.05,0.21,1.18,0.73c0.16,0.51-0.1,1.05-0.6,1.24
			c-4.45,1.84-7.4,3.86-7.43,9.23C205.97,427.07,205.54,432.26,204.73,437.4z"/>
		<path class="st2" d="M239.04,416.79v-0.08c-0.71-1.16,0.54-3.22,2.79-4.6l0.21-0.12c2.25-1.38,4.65-1.55,5.36-0.38l0.05,0.07
			c0.01,0.02,0.01,0.04,0,0.06L239.04,416.79z"/>
		<path class="st2" d="M229.37,415.67c-4.36-1.12-7.17-0.57-11.25,0.93c-0.41,0.15-0.63,0-0.66-0.44c-0.15-2.41,1.05-3.82,3.6-4.22
			c2.39-0.37,10.26-1.36,8.91,3.39c-0.03,0.24-0.24,0.4-0.48,0.37C229.45,415.7,229.41,415.69,229.37,415.67z"/>
		<path class="st2" d="M252.84,434.71c-3.75-2.43-8.25-3.42-12.67-2.79c-0.33,0.05-0.49-0.1-0.5-0.43c-0.04-3.11-0.04-6.27,0-9.46
			c0-4.33,4-6.7,7.83-7.2c0.37-0.05,0.73,0.15,0.89,0.48c2.83,5.89,4.71,12.2,5.57,18.68C254.11,435.03,253.73,435.27,252.84,434.71
			z"/>
		<path class="st2" d="M234.46,415.28l0.12,0c0.45,0,0.82,0.37,0.82,0.82l0.03,19.1c0,0.45-0.37,0.82-0.82,0.82l-0.12,0
			c-0.45,0-0.82-0.37-0.82-0.82l-0.03-19.1C233.64,415.65,234.01,415.29,234.46,415.28z"/>
		<path class="st2" d="M217.68,421.15c-0.12-3.8,8.73-4,11.21-2.45c0.29,0.19,0.47,0.53,0.45,0.88l-0.48,9.39
			c0.01,0.3-0.23,0.55-0.53,0.57l-9.69,1.29c-0.26,0.07-0.53-0.08-0.6-0.34c-0.01-0.04-0.02-0.08-0.02-0.13
			C217.73,427.3,217.61,424.22,217.68,421.15z"/>
		<path class="st2" d="M258.17,425.99c-0.02-0.13,0.08-0.26,0.21-0.28h0.28c1.22-0.18,2.53,1.74,2.91,4.3l1.94,13.14
			c0.37,2.55-0.32,4.77-1.55,5h-0.27c-0.14,0.02-0.27-0.08-0.29-0.22L258.17,425.99z"/>
		<path class="st2" d="M275.48,445.74c2.12,0.61,5.34,1.06,6.67,3c0.25,0.36,0.17,0.46-0.24,0.31c-5.09-1.95-10.57-2.72-16-2.24
			c-0.08,0.01-0.14-0.05-0.15-0.13c0,0,0-0.01,0-0.01v-0.26c0,0,0,0,0.13,0c1.88,0.08,3.77-0.01,5.63-0.27
			c0.34-0.01,0.61-0.29,0.61-0.63c0-0.02,0-0.04-0.01-0.07c-0.22-6.46-0.94-12.89-2.15-19.24c-0.1-0.55,0.13-0.79,0.68-0.73
			l1.12,0.13c0.31,0.02,0.56,0.25,0.61,0.55c1.39,6.25,2.24,12.61,2.53,19C274.95,445.45,275.18,445.69,275.48,445.74z"/>
		<path class="st2" d="M219.66,433.35l8.62-0.83c0.53-0.05,1,0.34,1.05,0.86l0.03,0.32c0.05,0.53-0.34,1-0.86,1.05l-8.62,0.83
			c-0.53,0.05-1-0.34-1.05-0.86l-0.03-0.32C218.74,433.87,219.13,433.4,219.66,433.35z"/>
		<path class="st2" d="M255.77,442.21c-4.68-3.27-9.94-5.59-15.51-6.83c-0.15,0-0.17-0.1-0.05-0.2c4.17-3.72,11,0.74,15.13,2.66
			c0.34,0.15,0.56,0.47,0.59,0.84l0.32,3.25C256.29,442.36,256.17,442.45,255.77,442.21z"/>
		<path class="st2" d="M211.39,437.27l-2.3,10.44c-0.05,0.26-0.29,0.43-0.55,0.41c-1.55-0.16-2.19-0.92-1.93-2.28
			c0.67-3.49,1.37-6.94,2.1-10.35c0.08-0.76,0.52-1.43,1.19-1.81c0.4-0.17,0.65-0.04,0.75,0.39L211.39,437.27z"/>
		<path class="st2" d="M234.94,449.94c-0.82,4.07-2.41,7.94-4.69,11.41c-1.04-0.73-1.76-1.84-2-3.09c-0.57-2.72-0.98-5.47-1.25-8.23
			c-0.39-5.27-0.78-5.27-1.17,0c-0.2,2.77-0.84,7.5,0.89,10.56c0.13,0.24,0.06,0.54-0.16,0.7c-0.23,0.15-0.54,0.11-0.71-0.11
			c-3.29-4.14-2.73-10.94-3.11-16c-0.02-0.22-0.19-0.39-0.41-0.41c-0.22-0.01-0.42,0.14-0.47,0.35c-0.84,3.63-2.07,13.33,0.87,16.26
			c0.27,0.27,0.22,0.45-0.14,0.56c-0.36,0.15-0.78,0.07-1.06-0.2c-3.55-3.3-3.13-11.49-2.88-16.11c0.01-0.39-0.29-0.72-0.68-0.74
			c-0.31-0.01-0.59,0.18-0.7,0.48c-0.75,2.41-1,4.95-0.75,7.47c-0.68,1.85-1.89,3.46-3.48,4.63c-1.05-4.85-1.11-9.87-0.19-14.75
			c1.08-5.26,12.53-4.91,16.28-4.55C234.89,438.77,235.4,445.76,234.94,449.94z"/>
		<path class="st2" d="M242.23,437.78c4.52,1.5,8.69,3.91,12.26,7.07c0.91,0.77,0.87,1.49-0.13,2.14l-11.45,7.53L242.23,437.78z"/>
		<path class="st2" d="M259.01,448.74c-6.31,3.1-12.06,7.23-17,12.23c-0.17,0.15-0.43,0.15-0.6,0c-0.18-0.14-0.23-0.39-0.11-0.59
			c4.12-7,9.93-9.84,17.65-11.75H259C259,448.63,259.03,448.73,259.01,448.74z"/>
		<path class="st2" d="M204.07,451.32c-0.12-0.03-0.19-0.15-0.15-0.27c0,0,0-0.01,0-0.01v-0.1c0.41-0.81,1.38-1.15,2.21-0.78
			l1.26,0.39c1,0.31,1.63,1.15,1.4,1.88v0.1c-0.03,0.12-0.15,0.19-0.27,0.15c0,0-0.01,0-0.01,0L204.07,451.32z"/>
		<path class="st2" d="M281.17,451.72c0.02-0.08,0.1-0.13,0.18-0.11l0,0c1.15,0.3,1.64,2.2,1.1,4.23l-0.28,1.05
			c-0.53,2-1.9,3.43-3,3.13l0,0c-0.08-0.02-0.12-0.09-0.1-0.17c0,0,0-0.01,0-0.01L281.17,451.72z"/>
		<path class="st3" d="M216.57,452.88l1.2,7.59c0.06,0.38-0.1,0.55-0.48,0.5c-1.96-0.22-3.61-1.58-4.2-3.46
			C214.68,456.34,215.89,454.73,216.57,452.88z"/>
		<path class="st2" d="M185.75,459.63c-1.77-0.52-3.08-2-3.39-3.82c-0.1-0.46,0.08-0.65,0.55-0.58c7,1.19,12.14,3.09,18.32-1.43
			c0.31-0.21,0.73-0.18,1,0.09c0.25,0.28,0.28,0.69,0.06,1C198.21,460.34,192.7,461.92,185.75,459.63z"/>
		<path class="st2" d="M193.62,463.73c5.5-1.72,9-3.4,12.17-8.1c0.17-0.26,0.51-0.34,0.79-0.2c0.27,0.14,0.4,0.46,0.3,0.75
			c-2.15,6.17-6.54,8.91-13.19,8.24c-0.19-0.01-0.34-0.17-0.34-0.36C193.36,463.9,193.47,463.77,193.62,463.73z"/>
		<path class="st2" d="M296.02,463.16c0.37,0.17,0.53,0.61,0.36,0.98c-0.13,0.28-0.42,0.45-0.73,0.43c-3.19-0.33-6.53-0.6-10-0.83
			c-1.15-0.13-2.18-0.75-2.82-1.71c-0.32-0.37-0.24-0.58,0.24-0.65C287.47,460.72,291.96,461.34,296.02,463.16z"/>
		<path class="st2" d="M256.82,461.65c8.09,0.18,17.11-1,24.52,2.07c0.25,0.09,0.38,0.37,0.29,0.61c-0.07,0.2-0.27,0.33-0.49,0.32
			c-6.17-0.21-12.46-0.26-18.88-0.15c-2.33,0-3.87-1.24-5.54-2.58c-0.07-0.05-0.08-0.14-0.03-0.21
			C256.72,461.67,256.77,461.65,256.82,461.65z"/>
		<path class="st2" d="M246.17,463.6c-0.07-0.01-0.12-0.07-0.11-0.15c0,0,0-0.01,0-0.01l0,0c0.25-1.16,2.53-1.66,5.09-1.11
			l0.35,0.07c2.56,0.55,4.43,1.94,4.18,3.1l0,0c-0.02,0.07-0.09,0.12-0.17,0.11L246.17,463.6z"/>
	</g>
	<g>
		<path class="st2" d="M378.53,410.73c-3.35,12-9,27.42-15.15,38.26l-15.43,0.16c-0.45,0-0.53-0.16-0.23-0.5
			c17.11-19.3,30.4-43.3,33.5-69.21c0.08-0.55,0.59-0.92,1.14-0.84c0.14,0.02,0.27,0.07,0.38,0.14c0.17,0.24,0.3,0.52,0.36,0.81
			c8.05,25.11,20.53,48.57,36.84,69.29c0.15,0.2,0.11,0.48-0.09,0.63c-0.08,0.06-0.19,0.09-0.29,0.09
			c-0.54-0.02-1.05-0.24-1.43-0.63c-9.81-11.17-17.99-23.67-24.3-37.13c-3.39-7.23-6.58-14.61-9.57-22.13
			c-0.04-0.26-0.28-0.43-0.53-0.4c-0.09,0.01-0.18,0.05-0.25,0.12c-0.21,0.13-0.25,0.52-0.1,1.17c4.74,20.94,16.75,41.3,29.74,58.17
			c0.32,0.41,0.22,0.62-0.3,0.62l-19.22-0.07c-0.33,0-0.63-0.19-0.78-0.48c-0.96-1.94-1.78-3.94-2.46-6
			c-4.43-13.41-7.58-27.22-9.39-41.23c-0.05-0.23-0.28-0.38-0.51-0.33c-0.16,0.04-0.29,0.16-0.33,0.33L378.53,410.73z"/>
		<path class="st2" d="M341.12,448.62c16.83-19.69,27.68-40.78,36.71-64.07c0.1-0.23,0.36-0.33,0.59-0.23
			c0.15,0.06,0.25,0.2,0.27,0.36c0.06,1.09-0.09,2.18-0.44,3.22c-6.94,22.53-18.67,43.29-34.39,60.85c-0.6,0.79-1.68,1.04-2.57,0.59
			c-0.23-0.1-0.34-0.37-0.24-0.6C341.06,448.69,341.09,448.65,341.12,448.62z"/>
		<path class="st2" d="M434.84,441.75c-8.47-3.71-13.71-6.29-15.72-7.73c-2.53-1.81-5.88-5.48-10.06-11
			c-7.7-10.1-14.31-20.99-19.72-32.49c-0.28-0.54-0.35-1.16-0.19-1.74c0.15-0.52,0.35-0.54,0.61-0.07
			c8.58,15.61,16.42,28.28,27.1,39.78c2.61,2.76,5.73,5,9.18,6.59c15.69,7.44,31.92,13.67,48.56,18.63c1.39,0.5,2.9,0.57,4.33,0.21
			c0.32-0.1,0.67,0.04,0.84,0.33c0.45,0.74,0.54,1.64,0.24,2.45c-0.11,0.54-0.64,0.89-1.18,0.77c-0.06-0.01-0.12-0.03-0.18-0.05
			C463.69,453.24,449.05,448,434.84,441.75z"/>
		<path class="st2" d="M327.69,444.67c-10.31,5.06-20.99,9.33-31.94,12.79c-0.55,0.28-1.21,0.06-1.49-0.49
			c-0.07-0.14-0.11-0.29-0.12-0.44c-0.19-0.77-0.01-1.58,0.48-2.2c0.22-0.28,0.59-0.41,0.94-0.32c0.85,0.24,1.74,0.24,2.59,0
			c15.37-4.97,30.06-11.84,43.73-20.45c8.09-5.18,14.48-13.47,20.43-22.72c0.05-0.09,0.16-0.13,0.26-0.1l0.45,0.11
			c0.09,0,0.12,0.08,0.08,0.17C355.47,427.37,343.6,436.86,327.69,444.67z"/>
		<path class="st3" d="M378.53,410.73c-1.1,13.19-6.09,25-12.1,37.36c-0.13,0.29-0.4,0.49-0.72,0.53l-2.33,0.37
			C369.5,438.15,375.18,422.71,378.53,410.73z"/>
	</g>
	<text transform="matrix(1 0 0 1 204.8973 585.9915)" class="st1 st4 st5 st6">NEPAL</text>
	<g>
		<path class="st1" d="M492.33,539.1c-3.32-0.51-6.64-0.99-9.94-1.57c-0.26-0.05-0.58-0.76-0.59-1.17
			c-0.04-4.92,0.01-9.84-0.02-14.75c-0.02-3.56-0.07-7.11-0.24-10.67c-0.1-2.09-1.02-2.84-3.11-2.78c0,9.48,0,18.97,0,28.61
			c-0.57-0.08-0.95-0.11-1.33-0.18c-2.91-0.54-5.81-1.13-8.73-1.6c-0.98-0.16-1.3-0.5-1.29-1.52c0.07-6.28,0.07-12.55,0.08-18.83
			c0.02-13.79,0.03-27.59,0.05-41.38c0-0.43,0-0.86,0-1.31c0.31-0.06,0.51-0.13,0.7-0.13c4.99-0.09,9.99-0.19,14.98-0.24
			c3.55-0.03,5.94,1.73,7.39,4.92c1.28,2.82,1.58,5.84,1.8,8.87c0.09,1.27,0.16,2.54,0.24,3.81c0,0.48,0,0.96,0,1.44
			c-0.16,2.06-0.3,4.12-0.49,6.17c-0.3,3.24-1.42,5.9-4.97,6.77c-0.04,0.01-0.06,0.13,0-0.01c1.22,1.17,2.57,2.14,3.48,3.42
			c1.21,1.71,1.68,3.76,1.74,5.89c0.06,2.19,0.16,4.37,0.25,6.56C492.33,525.98,492.33,532.54,492.33,539.1z M478.49,497.75
			c2.01,0.11,2.95-0.5,3.07-2.31c0.19-2.98,0.17-5.97,0.2-8.96c0.01-0.59-0.13-1.19-0.29-1.76c-0.4-1.41-1.41-1.98-2.97-1.69
			C478.49,487.9,478.49,492.79,478.49,497.75z"/>
		<path class="st1" d="M133.86,471.86c4.94,0.3,9.69,0.54,14.42,0.89c1.46,0.11,2.96,0.35,4.35,0.8c4.58,1.49,6.37,5.16,6.77,9.55
			c0.35,3.73,0.34,7.51,0.34,11.26c-0.02,8.44-0.13,16.87-0.22,25.31c-0.01,1.12-0.14,2.23-0.28,3.35c-0.46,3.8-2.85,6.56-6.68,7.39
			c-3.32,0.71-6.69,1.17-10.04,1.72c-2.87,0.47-5.75,0.92-8.66,1.38C133.86,513,133.86,492.58,133.86,471.86z M145.1,483.24
			c0,13.04,0,26.08,0,39.12c1.98-0.05,2.81-0.74,3.1-2.6c0.1-0.67,0.19-1.35,0.2-2.02c0.07-8.95,0.12-17.9,0.16-26.85
			c0.01-1.64-0.03-3.28-0.13-4.91C148.29,483.9,147.3,483.09,145.1,483.24z"/>
		<path class="st1" d="M101.56,539.18c0.12-1.69,0.22-3.23,0.34-4.77c1.04-12.43,2.07-24.86,3.12-37.28
			c0.71-8.4,1.45-16.81,2.14-25.21c0.07-0.84,0.42-0.97,1.14-0.94c4.72,0.19,9.43,0.38,14.15,0.52c0.94,0.03,0.97,0.56,1.04,1.23
			c0.67,6.97,1.34,13.93,2.05,20.89c1.32,12.97,2.68,25.93,4.01,38.9c0.05,0.51,0.08,1.02,0.14,1.68
			c-3.77,0.62-7.46,1.22-11.33,1.85c-0.21-3.78-0.41-7.43-0.62-11.29c-1.27,0.13-2.46,0.19-3.61,0.41
			c-0.22,0.04-0.45,0.67-0.48,1.05c-0.22,3.15-0.43,6.3-0.54,9.46c-0.04,1.1-0.45,1.47-1.51,1.65
			C108.31,537.87,105.02,538.53,101.56,539.18z M115.9,488.11c-0.12,0.01-0.24,0.02-0.37,0.02c-0.68,8.53-1.36,17.06-2.05,25.69
			c1.03-0.05,1.74-0.09,2.45-0.13c1.59-0.09,1.6-0.09,1.5-1.74c-0.42-6.62-0.86-13.23-1.29-19.85
			C116.05,490.77,115.98,489.44,115.9,488.11z"/>
		<path class="st1" d="M463.03,534.2c-2.68-0.41-5.19-0.79-7.71-1.18c-0.16-0.02-0.31-0.06-0.47-0.09
			c-3.26-0.54-3.24-0.54-3.39-3.89c-0.08-1.92-0.23-3.83-0.31-5.75c-0.03-0.66-0.22-1.02-0.96-1.06c-0.99-0.06-1.97-0.22-3.15-0.37
			c-0.26,3.21-0.52,6.33-0.78,9.6c-3.84-0.48-7.61-0.95-11.36-1.42c1.98-19.14,3.94-38.16,5.93-57.45c1.98,0,3.97,0.03,5.97-0.01
			c2.88-0.06,5.76-0.13,8.63-0.29c1.02-0.06,1.38,0.21,1.48,1.26c1.02,10.54,2.08,21.09,3.15,31.62c0.94,9.27,1.92,18.53,2.88,27.79
			C462.98,533.28,462.99,533.6,463.03,534.2z M450.83,512.15c-0.54-8.11-1.08-16.07-1.61-24.02c-0.09,0-0.18,0-0.27,0
			c-0.7,7.88-1.4,15.76-2.12,23.76C448.27,511.98,449.48,512.06,450.83,512.15z"/>
		<path class="st1" d="M163.46,473.2c3.93,0,7.56,0.01,11.2-0.01c0.88,0,0.77,0.64,0.81,1.17c0.37,4.78,0.75,9.57,1.07,14.35
			c0.49,7.22,0.95,14.44,1.43,21.66c0.01,0.15,0.05,0.3,0.23,0.47c0.06-0.28,0.15-0.57,0.17-0.85c0.81-11.73,1.63-23.45,2.4-35.18
			c0.07-1.12,0.36-1.5,1.53-1.44c3.03,0.17,6.07,0.2,9.11,0.29c0.39,0.01,0.78,0.05,1.3,0.08c-0.21,2.21-0.39,4.31-0.62,6.4
			c-1.33,12.04-2.66,24.08-4.02,36.11c-0.35,3.1-0.81,6.18-1.29,9.26c-0.06,0.38-0.52,0.95-0.85,0.99
			c-5.2,0.64-10.4,1.21-15.61,1.79c-0.12,0.01-0.24-0.02-0.69-0.06C167.58,509.9,165.51,491.49,163.46,473.2z"/>
		<path class="st1" d="M405.98,495.11c-3.61,0-7.08,0.02-10.55-0.05c-0.22,0-0.59-0.65-0.6-1.01c-0.07-2.68-0.04-5.36-0.09-8.04
			c-0.01-0.75-0.02-1.57-0.31-2.24c-0.21-0.48-0.87-1.05-1.34-1.06c-0.47-0.01-1.18,0.53-1.39,1c-0.31,0.7-0.36,1.56-0.36,2.35
			c-0.09,9.72-0.16,19.44-0.22,29.16c0,0.76,0.08,1.52,0.19,2.27c0.13,0.9,0.63,1.45,1.59,1.48c0.93,0.02,1.54-0.45,1.75-1.33
			c0.17-0.69,0.3-1.42,0.31-2.13c0.04-2.39,0.01-4.77,0.01-7.26c-0.64-0.04-1.27-0.08-2-0.13c0-2.58,0-5.14,0-7.65
			c4.34,0,8.59,0,12.84,0c0,8.75,0,17.28,0,26.03c-2.34-0.26-4.5-0.48-6.66-0.77c-0.26-0.03-0.55-0.42-0.67-0.71
			c-0.28-0.65-0.47-1.34-0.73-2.13c-0.65,0.6-1.14,1.17-1.75,1.6c-2.56,1.83-5.37,1.59-8.17,0.75c-4.72-1.41-7.55-4.89-7.8-9.82
			c-0.17-3.35-0.12-6.72-0.08-10.07c0.08-6.36,0.18-12.71,0.36-19.07c0.09-3.26,0.91-6.29,3-8.93c3.37-4.26,7.8-5.47,12.86-4.31
			c4.9,1.12,7.84,4.46,8.98,9.3C406.15,486.5,406.01,490.75,405.98,495.11z"/>
		<path class="st1" d="M221.39,474.38c3.19,0,6.06-0.03,8.93,0.05c0.29,0.01,0.73,0.63,0.83,1.04c1.57,6.24,3.1,12.49,4.65,18.73
			c0.31,1.26,0.67,2.51,1,3.76c0.1-0.01,0.2-0.02,0.3-0.03c0-7.74,0-15.49,0-23.25c3.23,0,6.27,0,9.49,0
			c-0.13,15.77-0.27,31.39-0.4,47.11c-3.41,0.2-6.63,0.38-10.07,0.58c-1.74-5.8-3.45-11.53-5.17-17.26
			c-0.05-0.01-0.1-0.03-0.15-0.04c-0.02,0.38-0.06,0.77-0.06,1.15c-0.07,5.12-0.15,10.24-0.18,15.36c-0.01,0.91-0.25,1.21-1.22,1.24
			c-2.67,0.08-5.34,0.32-7.94,0.49C221.39,506.94,221.39,490.69,221.39,474.38z"/>
		<path class="st1" d="M291.64,474.88c0,0.71,0,1.18,0,1.65c-0.09,11.56-0.18,23.12-0.25,34.67c-0.01,1.08,0.03,2.16,0.1,3.24
			c0.05,0.77,0.46,1.29,1.28,1.31c0.82,0.03,1.44-0.33,1.55-1.18c0.14-1.15,0.23-2.31,0.24-3.47c0.1-11.48,0.18-22.96,0.27-34.43
			c0-0.51,0-1.02,0-1.62c3.79,0,7.44,0,11.14,0c0.03,0.29,0.08,0.52,0.08,0.75c-0.11,12.16-0.25,24.31-0.34,36.47
			c-0.04,5.44-3.32,7.63-7.36,8.45c-4.42,0.9-8.82,0.86-13.12-0.68c-3.35-1.2-4.88-3.38-4.95-6.99c-0.05-2.64-0.04-5.28-0.03-7.92
			c0.05-9.56,0.12-19.12,0.18-28.67c0.01-1.59,0.01-1.59,1.65-1.58C285.2,474.88,288.31,474.88,291.64,474.88z"/>
		<path class="st1" d="M331.77,500.38c0.89,0.42,1.59,0.7,2.24,1.06c1.84,1.02,3.07,2.63,3.12,4.69c0.14,5.03,0.05,10.06,0.05,15.08
			c-3.51,0-6.89,0-10.43,0c0-0.6-0.01-1.02,0-1.45c0.06-3.52,0.14-7.03,0.19-10.55c0.01-1.04-0.02-2.08-0.14-3.11
			c-0.23-2.01-0.92-2.53-3.28-2.38c0,5.64,0,11.3,0,17.01c-3.93,0-7.61,0-11.31,0c0.14-15.31,0.28-30.48,0.42-45.63
			c0.1-0.07,0.17-0.14,0.23-0.14c5.43,0.08,10.86,0.06,16.29,0.28c4.13,0.17,6.35,2.84,7.45,6.55c0.97,3.26,0.98,6.63,0.85,9.99
			c-0.04,0.96-0.1,1.92-0.25,2.87C336.63,498.37,335.66,499.42,331.77,500.38z M323.75,496.07c2.15,0.23,3.03-0.32,3.16-2.37
			c0.15-2.34,0.17-4.7,0.01-7.03c-0.12-1.82-1.2-2.48-3.18-2.22C323.75,488.32,323.75,492.2,323.75,496.07z"/>
		<path class="st1" d="M431.26,473.1c0,2.04,0,3.99,0,5.94c0,1.68-0.06,3.36,0,5.04c0.04,0.97-0.33,1.24-1.24,1.22
			c-2.03-0.05-4.06-0.02-6.18-0.02c0,3.75,0,7.32,0,11.07c2.25,0,4.46,0,6.77,0c0,3.82,0,7.46,0,11.19c-2.28,0-4.5,0-6.93,0
			c0,0.64,0,1.26,0,1.88c-0.02,2.84-0.01,5.68-0.08,8.52c-0.02,0.88,0.27,1.19,1.14,1.24c2.04,0.1,4.07,0.26,6.1,0.48
			c0.35,0.04,0.94,0.44,0.95,0.68c0.07,3.03,0.04,6.06,0.04,9.27c-1.83-0.23-3.44-0.44-5.05-0.64c-4.48-0.55-8.96-1.11-13.45-1.62
			c-0.81-0.09-1.07-0.34-1.07-1.17c0.12-17.15,0.22-34.3,0.31-51.45c0-0.7,0.01-1.2,0.97-1.22c5.64-0.12,11.27-0.3,16.91-0.46
			C430.66,473.04,430.85,473.07,431.26,473.1z"/>
		<path class="st1" d="M207.97,516.07c2.7,0,5.29,0,7.93,0c0,2.48,0,5.01,0,7.64c-6.5,0.57-12.88,1.14-19.16,1.69
			c0-17.2,0-34.3,0-51.43c0.49-0.05,0.76-0.11,1.03-0.11c5.52,0.08,11.03,0.18,16.55,0.22c1.02,0.01,1.28,0.34,1.26,1.31
			c-0.05,3.31-0.02,6.62-0.02,10.1c-2.57,0-4.98,0-7.47,0c0,3.51,0,6.85,0,10.32c2.23,0,4.45,0,6.86,0c0,0.94,0,1.76,0,2.57
			c-0.01,2.04-0.08,4.08-0.01,6.12c0.03,1.02-0.34,1.29-1.3,1.28c-1.6-0.03-3.2,0.08-4.8,0.11c-0.53,0.01-0.92,0.08-0.92,0.77
			c0,3.04-0.04,6.08-0.05,9.11C207.87,515.88,207.95,515.99,207.97,516.07z"/>
		<path class="st1" d="M355.25,485.74c0,3.45,0,6.67,0,10.05c2.28,0,4.5,0,6.8,0c0,3.28,0,6.41,0,9.62c-2.32,0-4.54,0-6.9,0
			c0,3.14,0,6.31,0,9.58c2.6,0.12,5.22,0.24,7.92,0.36c0,2.47,0,4.88,0,7.47c-6.51-0.4-12.91-0.8-19.36-1.19
			c0.13-15.64,0.25-31.17,0.38-46.9c6.21,0,12.34,0,18.63,0c0,0.78,0,1.65,0,2.51c-0.01,2.48-0.05,4.96-0.01,7.44
			c0.01,0.86-0.29,1.1-1.11,1.08C359.53,485.71,357.46,485.74,355.25,485.74z"/>
		<path class="st1" d="M268.8,520.95c-3.87,0.14-7.49,0.26-11.07,0.39c0-11.88,0-23.62,0-35.56c-2.05,0-4.18,0-6.36,0
			c0-3.74,0-7.29,0-10.99c0.45-0.03,0.87-0.08,1.29-0.07c7.32,0.03,14.64,0.09,21.96,0.09c0.94,0,1.24,0.26,1.22,1.21
			c-0.07,2.88-0.04,5.76-0.06,8.64c0,0.35-0.06,0.7-0.09,1.15c-2.19,0-4.29,0-6.49,0C269.06,497.55,268.93,509.16,268.8,520.95z"/>
	</g>
	<path class="st7" d="M453.59,545.91c-10.72,22.24-26.99,41.55-46.51,56.59c-20.3,15.65-44.02,26.63-68.96,32.45
		c-25.91,6.05-53.08,6.62-79.22,1.66c-25.39-4.81-49.81-14.86-70.94-29.78c-19.64-13.87-36.44-31.9-48.22-52.91
		c-1.68-3-3.26-6.06-4.74-9.17"/>
	<text transform="matrix(1 0 0 1 264.5084 615.0149)" class="st1 st8 st9">2023</text>
	<g>
		<g>
			<path class="st10" d="M441.27,545.97c-0.48,0.88-0.96,1.76-1.45,2.63"/>
			<path class="st11" d="M436.81,553.69c-15.93,25.87-39.19,47.01-67.43,60.67c-47,22-101,22-148,0
				c-28.22-14.11-53.78-36.18-69.3-63.49"/>
			<path class="st10" d="M150.66,548.29c-0.47-0.88-0.94-1.77-1.39-2.66"/>
		</g>
	</g>
	<line class="st12" x1="239.61" y1="532.13" x2="362.45" y2="532.13"/>
	<polygon class="st1" points="301.03,526.01 302.56,529.48 306.33,529.07 304.09,532.13 306.33,535.19 302.56,534.78 301.03,538.26 
		299.5,534.78 295.73,535.19 297.97,532.13 295.73,529.07 299.5,529.48 	"/>
	<line class="st13" x1="169.33" y1="563.99" x2="202.91" y2="563.99"/>
	<line class="st13" x1="383.91" y1="563.99" x2="417.49" y2="563.99"/>
</g>
</svg>
